<?xml version="1.0" encoding="utf-8"?>
<!-- Generator: Adobe Illustrator 23.0.3, SVG Export Plug-In . SVG Version: 6.00 Build 0)  -->
<svg version="1.1" id="logo" xmlns="http://www.w3.org/2000/svg" xmlns:xlink="http://www.w3.org/1999/xlink" x="0px" y="0px"
	 viewBox="0 0 100 27.26" style="enable-background:new 0 0 100 27.26;" xml:space="preserve">
<path d="M5.88,3.46c1.82,0,2.91,0.11,3.35,0.39c0.18,0.11,0.21,0.31,0.21,0.48c0,0.28-0.12,0.59-0.73,0.51
	c-0.91-0.11-1.85-0.17-3-0.17c-3.23,0-3.88,1.69-3.88,3.13c0,1.38,0.82,2.85,3.61,4.9c3.2,2.31,4.41,3.55,4.41,5.97
	c0,3.07-2.26,4.51-6.14,4.51c-1.23,0-2.76-0.11-3.38-0.34C0.09,22.76,0,22.59,0,22.36c0-0.34,0.21-0.62,0.59-0.59
	c1.35,0.14,2.06,0.2,3.2,0.2c2.76,0,4.7-0.87,4.7-3.21c0-1.72-0.65-2.62-3.53-4.79c-3.29-2.48-4.61-4.03-4.61-6.23
	C0.35,4.84,2.5,3.46,5.88,3.46z M13.87,2.98c0-0.62,0.18-0.79,0.65-0.79c0.53,0,0.71,0.17,0.71,0.79v16.85
	c0,1.55,0.26,2.17,1.73,2.17h0.76c0.59,0,0.71,0.11,0.71,0.39s-0.03,0.45-0.41,0.53c-0.26,0.06-0.82,0.08-1.5,0.08
	c-2.59,0-2.64-1.69-2.64-3.94L13.87,2.98L13.87,2.98z M27.33,7.54c4.64,0,6.02,1.97,6.02,7.49c0,6.79-1.79,8.14-6.05,8.14
	c-3.88,0-6.08-1.35-6.08-7.41C21.22,9.37,22.75,7.54,27.33,7.54z M27.36,8.64c-4,0-4.7,1.13-4.7,6.65c0,5.97,1.2,6.76,4.7,6.76
	c3.47,0,4.58-0.79,4.58-6.76C31.94,9.66,30.83,8.64,27.36,8.64z M40.58,19.71c0,1.55,0.26,2.28,1.73,2.28h0.76
	c0.59,0,0.71,0.11,0.71,0.39c0,0.31-0.15,0.45-0.32,0.51c-0.32,0.11-0.7,0.11-1.38,0.11c-2.88,0-2.85-1.69-2.85-3.94V9.43
	c0-0.28-0.06-0.48-0.29-0.48H37c-0.65,0-0.76-0.08-0.76-0.59c0-0.42,0.12-0.53,0.76-0.53h1.91c0.26,0,0.32-0.14,0.32-0.42V3.68
	c0-0.62,0.18-0.79,0.65-0.79c0.53,0,0.71,0.17,0.71,0.79V7.4c0,0.28,0.06,0.42,0.32,0.42h2c0.65,0,0.76,0.11,0.76,0.53
	c0,0.51-0.12,0.59-0.76,0.59h-2c-0.26,0-0.32,0.11-0.32,0.45L40.58,19.71L40.58,19.71z M53.67,1.13c-0.97,0-1.12,0.31-1.12,1.49
	v22.5c0,0.82,0.15,1.01,1.12,1.01h2.38c0.44,0,0.56,0.14,0.56,0.53c0,0.48-0.12,0.59-0.56,0.59h-2.76c-1.62,0-2.09-0.62-2.09-1.86
	V1.86C51.2,0.7,51.67,0,53.29,0h2.76c0.44,0,0.56,0.14,0.56,0.53c0,0.48-0.12,0.59-0.56,0.59H53.67z M67.91,14.07
	c1-0.08,1.03-0.14,1.03-2c0-2.48-0.5-3.69-3.76-3.69c-1.15,0-2.56,0.14-3.67,0.39c-0.35,0.08-0.53-0.25-0.53-0.51
	c0-0.31,0.09-0.42,0.29-0.51c0.88-0.28,2.44-0.48,3.76-0.48c4.38,0,5.17,1.35,5.17,5.18v8.65c0,1.55-0.47,1.8-4.29,1.8
	c-4.5,0-6.11-1.01-6.11-4.2c0-3.13,0.97-4.09,5.38-4.45L67.91,14.07z M68.94,16.69c0-1.18-0.09-1.44-1.32-1.44h-1.65
	c-3.47,0-4.85,0.42-4.85,3.47c0,2.51,1.35,3.16,4.79,3.16c2.97,0,3.03-0.11,3.03-1.92V16.69z M75.91,9.03c0-0.87,0.21-1.1,0.73-1.24
	c1.47-0.39,3.08-0.51,4.44-0.51c1.32,0,1.47,0.14,1.47,0.65c0,0.37-0.18,0.51-0.44,0.51c-0.44,0-0.73-0.06-1.41-0.06
	c-0.85,0-2.41,0.08-2.97,0.37c-0.41,0.22-0.47,0.42-0.47,1.21v12c0,0.62-0.18,0.79-0.65,0.79c-0.53,0-0.7-0.17-0.7-0.79L75.91,9.03
	L75.91,9.03z M85.49,9.03c0-0.87,0.21-1.1,0.73-1.24c1.47-0.39,3.08-0.51,4.44-0.51c1.32,0,1.47,0.14,1.47,0.65
	c0,0.37-0.18,0.51-0.44,0.51c-0.44,0-0.73-0.06-1.41-0.06c-0.85,0-2.41,0.08-2.97,0.37c-0.41,0.22-0.47,0.42-0.47,1.21v12
	c0,0.62-0.18,0.79-0.65,0.79c-0.53,0-0.7-0.17-0.7-0.79L85.49,9.03L85.49,9.03z M97.53,26.13c0.97,0,1.12-0.31,1.12-1.49V2.14
	c0-0.82-0.15-1.01-1.12-1.01h-2.38c-0.44,0-0.56-0.14-0.56-0.53c0-0.48,0.12-0.59,0.56-0.59h2.76C99.53,0,100,0.62,100,1.86V25.4
	c0,1.16-0.47,1.86-2.09,1.86h-2.76c-0.44,0-0.56-0.14-0.56-0.53c0-0.48,0.12-0.59,0.56-0.59L97.53,26.13L97.53,26.13z"/>
</svg>
